<svg width="90" height="90" fill="none" xmlns="http://www.w3.org/2000/svg"><path d="M73.14 68.68H16.81a.8.8 0 0 0-.8.8v12.86a.8.8 0 0 0 .8.8h56.33a.8.8 0 0 0 .8-.8V69.48a.8.8 0 0 0-.8-.8z" fill="#FA412D"/><path d="M84.93 24.96a6.802 6.802 0 0 0-9.64 0c-2.12 2.12-2.55 5.3-1.29 7.85L62.76 40.6a.72.72 0 0 1-1.06-.21l-9.24-15.34a5.946 5.946 0 0 0-1.54-11.69h-.03c.02-.18.03-.36.03-.54 0-3.29-2.66-5.95-5.95-5.95s-5.95 2.66-5.95 5.95c0 .18.01.36.03.54h-.03c-3.29 0-5.95 2.66-5.95 5.95 0 2.78 1.9 5.1 4.48 5.76L28.32 40.4c-.23.38-.7.47-1.06.21l-11.4-7.89a6.76 6.76 0 0 0-1.28-7.75c-2.63-2.64-6.91-2.63-9.54 0l.02.02c-.06.06-.08.19-.03.38l11.43 38.66c.11.43.56.78 1 .78h55.12c.44 0 .89-.35 1-.78l11.4-38.66c.05-.2.03-.34-.04-.4l-.01-.01z" fill="#F7C631"/><path d="M39.03 12.81c0 .18.01.36.03.54h-.03c-3.29 0-5.95 2.66-5.95 5.95 0 2.78 1.9 5.1 4.48 5.76l-9.23 15.33c-.23.38-.7.47-1.06.21l-11.4-7.89a6.76 6.76 0 0 0-1.28-7.75c-2.63-2.64-6.91-2.63-9.54 0l.02.02c-.06.06-.08.19-.03.38l11.43 38.66c.11.43.56.78 1 .78h13.57c13.88-24 13.95-57.51 13.95-57.93-3.28 0-5.95 2.66-5.95 5.95l-.01-.01z" fill="#FCE26A"/></svg>